<?xml version="1.0" encoding="UTF-8" standalone="no"?>
<svg
   xmlns:dc="http://purl.org/dc/elements/1.1/"
   xmlns:cc="http://creativecommons.org/ns#"
   xmlns:rdf="http://www.w3.org/1999/02/22-rdf-syntax-ns#"
   xmlns:svg="http://www.w3.org/2000/svg"
   xmlns="http://www.w3.org/2000/svg"
   viewBox="0 0 533.33331 533.33331"
   height="533.33331"
   width="533.33331"
   xml:space="preserve"
   id="svg2"
   version="1.1"><metadata
     id="metadata8"><rdf:RDF><cc:Work
         rdf:about=""><dc:format>image/svg+xml</dc:format><dc:type
           rdf:resource="http://purl.org/dc/dcmitype/StillImage" /></cc:Work></rdf:RDF></metadata><defs
     id="defs6"><clipPath
       id="clipPath18"
       clipPathUnits="userSpaceOnUse"><path
         id="path16"
         d="M 0,400 H 400 V 0 H 0 Z" /></clipPath></defs><g
     transform="matrix(1.3333333,0,0,-1.3333333,0,533.33333)"
     id="g10"><g
       id="g12"><g
         clip-path="url(#clipPath18)"
         id="g14"><g
           transform="translate(265.0359,198.6774)"
           id="g20"><path
             id="path22"
             style="fill:#aec5e7;fill-opacity:1;fill-rule:nonzero;stroke:none"
             d="m 0,0 c 0,-58.364 -48.353,-105.677 -108,-105.677 -59.647,0 -108,47.313 -108,105.677 0,58.364 48.353,105.677 108,105.677 C -48.353,105.677 0,58.364 0,0" /></g><g
           transform="translate(265.0359,198.6774)"
           id="g24"><path
             id="path26"
             style="fill:none;stroke:#aec5e7;stroke-width:2;stroke-linecap:butt;stroke-linejoin:miter;stroke-miterlimit:10;stroke-dasharray:none;stroke-opacity:1"
             d="m 0,0 c 0,-58.364 -48.353,-105.677 -108,-105.677 -59.647,0 -108,47.313 -108,105.677 0,58.364 48.353,105.677 108,105.677 C -48.353,105.677 0,58.364 0,0 Z" /></g><g
           transform="translate(262.625,198.6774)"
           id="g28"><path
             id="path30"
             style="fill:none;stroke:#ffffff;stroke-width:2;stroke-linecap:butt;stroke-linejoin:miter;stroke-miterlimit:10;stroke-dasharray:none;stroke-opacity:1"
             d="m 0,0 c 0,-57.3 -47.274,-103.75 -105.589,-103.75 -58.315,0 -105.589,46.45 -105.589,103.75 0,57.3 47.274,103.75 105.589,103.75 C -47.274,103.75 0,57.3 0,0 Z" /></g><g
           transform="translate(119.2896,197.4766)"
           id="g32"><path
             id="path34"
             style="fill:#ffffff;fill-opacity:1;fill-rule:nonzero;stroke:none"
             d="m 0,0 v -42.019 c 0,-3.975 -0.997,-6.965 -2.991,-8.972 C -4.985,-52.997 -7.957,-54 -11.907,-54 h -11.962 c -3.95,0 -6.922,1.003 -8.916,3.009 -1.994,2.007 -2.99,4.997 -2.99,8.972 v 12.038 h 11.906 v -12.038 c 0,-1.631 0.592,-3.033 1.774,-4.205 1.184,-1.172 2.586,-1.757 4.207,-1.757 1.64,0 3.046,0.585 4.22,1.757 1.174,1.172 1.761,2.574 1.761,4.205 V 0 Z" /></g><g
           transform="translate(119.2896,197.4766)"
           id="g36"><path
             id="path38"
             style="fill:none;stroke:#ffffff;stroke-width:1;stroke-linecap:butt;stroke-linejoin:miter;stroke-miterlimit:10;stroke-dasharray:none;stroke-opacity:1"
             d="m 0,0 v -42.019 c 0,-3.975 -0.997,-6.965 -2.991,-8.972 C -4.985,-52.997 -7.957,-54 -11.907,-54 h -11.962 c -3.95,0 -6.922,1.003 -8.916,3.009 -1.994,2.007 -2.99,4.997 -2.99,8.972 v 12.038 h 11.906 v -12.038 c 0,-1.631 0.592,-3.033 1.774,-4.205 1.184,-1.172 2.586,-1.757 4.207,-1.757 1.64,0 3.046,0.585 4.22,1.757 1.174,1.172 1.761,2.574 1.761,4.205 V 0 Z" /></g><g
           transform="translate(151.8921,173.458)"
           id="g40"><path
             id="path42"
             style="fill:#ffffff;fill-opacity:1;fill-rule:nonzero;stroke:none"
             d="m 0,0 h 11.962 v 12.037 c 0,1.631 -0.592,3.032 -1.774,4.205 C 9.004,17.413 7.602,18 5.98,18 4.341,18 2.935,17.413 1.761,16.242 0.587,15.069 0,13.668 0,12.037 Z m -11.906,-29.981 v 42.018 c 0,3.281 1.169,6.099 3.507,8.451 2.338,2.354 5.138,3.531 8.399,3.531 h 11.962 c 3.261,0 6.06,-1.182 8.398,-3.544 2.339,-2.363 3.508,-5.175 3.508,-8.438 V -29.981 H 11.962 V -5.963 H 0 v -24.018 z" /></g><g
           transform="translate(151.8921,173.458)"
           id="g44"><path
             id="path46"
             style="fill:none;stroke:#ffffff;stroke-width:1;stroke-linecap:butt;stroke-linejoin:miter;stroke-miterlimit:10;stroke-dasharray:none;stroke-opacity:1"
             d="m 0,0 h 11.962 v 12.037 c 0,1.631 -0.592,3.032 -1.774,4.205 C 9.004,17.413 7.602,18 5.98,18 4.341,18 2.935,17.413 1.761,16.242 0.587,15.069 0,13.668 0,12.037 Z m -11.906,-29.981 v 42.018 c 0,3.281 1.169,6.099 3.507,8.451 2.338,2.354 5.138,3.531 8.399,3.531 h 11.962 c 3.261,0 6.06,-1.182 8.398,-3.544 2.339,-2.363 3.508,-5.175 3.508,-8.438 V -29.981 H 11.962 V -5.963 H 0 v -24.018 z" /></g><path
           id="path48"
           style="fill:#ffffff;fill-opacity:1;fill-rule:nonzero;stroke:#ffffff;stroke-width:1;stroke-linecap:butt;stroke-linejoin:miter;stroke-miterlimit:10;stroke-dasharray:none;stroke-opacity:1"
           d="m 202.325,197.477 h 11.935 v -54 h -11.935 z" /><g
           transform="translate(109.6211,123.5342)"
           id="g50"><path
             id="path52"
             style="fill:#ffffff;fill-opacity:1;fill-rule:nonzero;stroke:none"
             d="M 0,0 V 13.5 H 2.977 V 7.495 h 2.99 V 13.5 H 8.944 V 0 H 5.967 V 6.005 H 2.977 L 2.977,0 Z" /></g><g
           transform="translate(124.5176,131.0293)"
           id="g54"><path
             id="path56"
             style="fill:#ffffff;fill-opacity:1;fill-rule:nonzero;stroke:none"
             d="M 0,0 H 2.991 V 3.01 C 2.991,3.417 2.843,3.768 2.547,4.061 2.251,4.354 1.901,4.5 1.496,4.5 1.085,4.5 0.734,4.354 0.44,4.061 0.147,3.768 0,3.417 0,3.01 Z m 1.496,6.005 c 0.414,0 0.767,0.147 1.058,0.442 0.291,0.296 0.437,0.648 0.437,1.055 0,0.413 -0.148,0.766 -0.444,1.059 C 2.251,8.854 1.901,9 1.496,9 1.085,9 0.734,8.854 0.44,8.561 0.147,8.268 0,7.915 0,7.502 0,7.095 0.146,6.743 0.437,6.447 0.728,6.152 1.081,6.005 1.496,6.005 m -4.473,-13.5 V 3.01 c 0,1.391 0.664,2.334 1.992,2.826 -0.163,0.3 -0.286,0.588 -0.37,0.865 -0.084,0.277 -0.126,0.536 -0.126,0.78 0,0.844 0.294,1.559 0.88,2.145 0.587,0.586 1.286,0.879 2.097,0.879 0.81,0 1.509,-0.293 2.096,-0.879 C 4.179,9.04 4.472,8.327 4.472,7.488 4.472,7.23 4.431,6.965 4.35,6.69 4.268,6.416 4.144,6.131 3.976,5.836 5.304,5.354 5.967,4.411 5.967,3.01 V -7.495 H 2.991 V -1.49 H 0 v -6.005 z" /></g><g
           transform="translate(133.4609,123.5342)"
           id="g58"><path
             id="path60"
             style="fill:#ffffff;fill-opacity:1;fill-rule:nonzero;stroke:none"
             d="M 0,0 V 13.5 H 0.678 L 8.944,6.005 V 13.5 h 1.495 V 0 H 9.754 L 1.496,7.495 V 0 Z" /></g><g
           transform="translate(149.853,125.0391)"
           id="g62"><path
             id="path64"
             style="fill:#ffffff;fill-opacity:1;fill-rule:nonzero;stroke:none"
             d="M 0,0 H 1.496 C 1.91,0 2.263,0.147 2.554,0.442 2.845,0.738 2.991,1.087 2.991,1.49 V 9 c 0,0.407 -0.148,0.758 -0.444,1.051 C 2.251,10.344 1.901,10.49 1.496,10.49 H 0 Z m -2.977,-1.505 v 13.5 h 5.968 c 0.815,0 1.515,-0.296 2.099,-0.886 C 5.675,10.519 5.967,9.815 5.967,9 V 1.49 C 5.967,0.679 5.675,-0.022 5.09,-0.615 4.506,-1.209 3.806,-1.505 2.991,-1.505 Z" /></g><g
           transform="translate(161.7734,125.0391)"
           id="g66"><path
             id="path68"
             style="fill:#ffffff;fill-opacity:1;fill-rule:nonzero;stroke:none"
             d="M 0,0 H 1.496 C 1.901,0 2.251,0.147 2.547,0.442 2.843,0.738 2.991,1.087 2.991,1.49 V 2.995 C 2.991,3.998 2.492,4.5 1.496,4.5 H 0 Z m 0,5.99 h 1.496 c 0.405,0 0.755,0.149 1.051,0.447 0.296,0.297 0.444,0.65 0.444,1.058 V 9 c 0,0.407 -0.148,0.758 -0.444,1.051 C 2.251,10.344 1.901,10.49 1.496,10.49 H 0 Z m -2.977,-7.495 v 13.5 h 5.968 c 0.815,0 1.515,-0.296 2.099,-0.886 C 5.675,10.519 5.967,9.815 5.967,9 V 8.24 C 5.967,7.363 5.719,6.675 5.223,6.173 4.727,5.671 3.983,5.362 2.991,5.245 3.983,5.245 4.727,4.943 5.223,4.342 5.719,3.739 5.967,3.042 5.967,2.25 V 1.49 c 0,-0.811 -0.294,-1.512 -0.884,-2.105 -0.589,-0.594 -1.287,-0.89 -2.092,-0.89 z" /></g><g
           transform="translate(173.6934,134.0391)"
           id="g70"><path
             id="path72"
             style="fill:#ffffff;fill-opacity:1;fill-rule:nonzero;stroke:none"
             d="M 0,0 V -7.51 C 0,-7.913 0.146,-8.262 0.437,-8.558 0.728,-8.853 1.081,-9 1.496,-9 c 0.414,0 0.767,0.147 1.058,0.442 0.291,0.296 0.437,0.645 0.437,1.048 V 0 C 2.991,0.407 2.843,0.758 2.547,1.051 2.251,1.344 1.901,1.49 1.496,1.49 1.085,1.49 0.734,1.344 0.44,1.051 0.147,0.758 0,0.407 0,0 M 0,2.995 H 2.991 C 3.806,2.995 4.506,2.699 5.09,2.109 5.675,1.519 5.967,0.815 5.967,0 v -7.51 c 0,-0.811 -0.292,-1.512 -0.877,-2.105 -0.584,-0.594 -1.284,-0.89 -2.099,-0.89 H 0 c -0.815,0 -1.515,0.294 -2.1,0.882 -0.584,0.589 -0.877,1.293 -0.877,2.113 V 0 c 0,0.819 0.293,1.524 0.877,2.112 0.585,0.588 1.285,0.883 2.1,0.883" /></g><g
           transform="translate(182.6367,123.5342)"
           id="g74"><path
             id="path76"
             style="fill:#ffffff;fill-opacity:1;fill-rule:nonzero;stroke:none"
             d="M 0,0 V 13.5 H 2.977 V 1.505 H 7.449 V 0 Z" /></g><g
           transform="translate(196.0518,125.0391)"
           id="g78"><path
             id="path80"
             style="fill:#ffffff;fill-opacity:1;fill-rule:nonzero;stroke:none"
             d="M 0,0 H 1.496 C 1.91,0 2.264,0.147 2.555,0.442 2.846,0.738 2.992,1.087 2.992,1.49 V 9 c 0,0.407 -0.148,0.758 -0.445,1.051 C 2.252,10.344 1.9,10.49 1.496,10.49 H 0 Z m -2.976,-1.505 v 13.5 h 5.968 c 0.815,0 1.514,-0.296 2.1,-0.886 C 5.676,10.519 5.969,9.815 5.969,9 V 1.49 c 0,-0.811 -0.293,-1.512 -0.877,-2.105 -0.586,-0.594 -1.285,-0.89 -2.1,-0.89 z" /></g><g
           transform="translate(157.1319,273.8694)"
           id="g82"><path
             id="path84"
             style="fill:#adc4e6;fill-opacity:1;fill-rule:nonzero;stroke:#ffffff;stroke-width:3;stroke-linecap:butt;stroke-linejoin:miter;stroke-miterlimit:10;stroke-dasharray:none;stroke-opacity:1"
             d="M 0,0 1.431,-0.108 0,0 -0.117,0.012 -0.113,0.131 c -0.007,0.2 0.006,0.433 0.04,0.678 0.254,1.786 1.403,5.103 2.81,8.044 l 0.35,0.734 c 0.314,0.66 -0.15,1.426 -0.889,1.469 l -0.836,0.049 c -6.351,0.371 -14.741,-4.89 -18.688,-11.719 l -0.043,-0.053 -0.06,-0.012 -1.976,-0.214 c -15.799,-1.738 -39.659,-4.366 -49.355,-21.782 -0.723,-1.29 -1.648,-3.425 -2.059,-6.318 -0.217,-1.537 -0.266,-3.132 -0.134,-4.753 l -0.004,-0.025 c -0.15,-1.062 -3.42,-3.314 -6.49,-5.35 -4.086,-2.7 -7.62,-5.045 -8.202,-7.668 l -0.036,-0.249 c -0.12,-0.847 0.112,-1.694 0.672,-2.392 0.733,-0.903 1.889,-1.446 3.123,-1.462 26.77,-0.346 61.379,12.384 68.06,14.932 5.224,2.01 10.976,3.72 16.632,4.955 l 0.183,0.039 3.03,0.571 c 0.105,0.02 0.214,-0.003 0.319,0.008 9.158,1.01 13.774,1.952 16.034,1.855 l 0.109,0.004 c 13.06,0.43 25.149,-1.204 30.863,-2.903 l 0.09,-0.023 0.016,-0.082 c 0.628,-7.343 9.41,-12.288 9.78,-12.49 l 0.931,-0.516 c 0.73,-0.404 1.618,0.158 1.55,0.979 -0.048,0.578 -0.087,1.045 -0.087,1.045 -0.015,0.017 -0.167,1.895 0.182,4.357 0.186,1.312 0.474,2.534 0.878,3.635 0.152,0.413 0.251,0.858 0.314,1.298 0.164,1.16 0.045,2.415 -0.355,3.72 l -0.031,0.104 0.099,0.051 c 1.741,0.827 3.037,2.16 3.845,3.948 1.578,3.52 5.712,6.454 5.754,6.478 l 0.75,0.522 c 0.633,0.44 0.571,1.386 -0.114,1.749 -0.452,0.24 -0.82,0.436 -0.82,0.436 -3.194,1.675 -13.017,1.621 -18.012,-2.898 l -0.066,-0.075 -0.09,0.062 c -9.469,6.869 -19.214,11.707 -29.72,14.767 -0.74,0.216 -1.484,0.424 -2.232,0.622 l -6.63,1.322 -5.807,0.942 -6.794,0.74 L 0,0" /></g><g
           transform="translate(94.5569,241.2437)"
           id="g86"><path
             id="path88"
             style="fill:#ffffff;fill-opacity:1;fill-rule:nonzero;stroke:#ffffff;stroke-width:1;stroke-linecap:butt;stroke-linejoin:miter;stroke-miterlimit:10;stroke-dasharray:none;stroke-opacity:1"
             d="m 0,0 c -0.72,0.075 -1.117,-0.365 -1.491,-0.793 -0.243,-0.281 -0.528,-0.59 -0.898,-0.841 0,0 0.612,-0.509 0.873,-0.718 0.017,-0.135 0.043,-0.331 0.043,-0.331 2.688,0.056 2.995,0.468 3.12,0.621 0.148,0.186 0.153,0.419 0.016,0.627 C 1.16,-0.604 0.702,-0.073 0,0" /></g><g
           transform="translate(155.5506,246.1107)"
           id="g90"><path
             id="path92"
             style="fill:#adc4e6;fill-opacity:1;fill-rule:nonzero;stroke:#ffffff;stroke-width:2;stroke-linecap:butt;stroke-linejoin:miter;stroke-miterlimit:10;stroke-dasharray:none;stroke-opacity:1"
             d="M 0,0 0.892,0.06 0,0 -0.073,-0.003 -0.081,0.073 c -0.022,0.126 -0.035,0.275 -0.035,0.433 0,1.153 0.419,3.357 1.03,5.345 L 1.065,6.347 C 1.202,6.793 0.849,7.237 0.389,7.198 L -0.131,7.153 C -4.081,6.818 -8.797,2.734 -10.634,-1.944 l -0.022,-0.038 -0.036,-0.012 -1.2,-0.313 c -9.594,-2.52 -24.083,-6.325 -28.541,-18.223 -0.333,-0.882 -0.717,-2.317 -0.717,-4.185 0,-0.993 0.109,-2.007 0.333,-3.022 v -0.016 c 0,-0.685 -1.821,-2.405 -3.536,-3.97 -2.285,-2.076 -4.26,-3.878 -4.389,-5.591 v -0.161 c 0,-0.548 0.217,-1.062 0.623,-1.454 0.531,-0.506 1.292,-0.747 2.055,-0.645 16.544,2.184 36.779,13.351 40.678,15.564 3.047,1.741 6.446,3.341 9.827,4.631 l 0.109,0.041 1.819,0.633 c 0.063,0.022 0.132,0.017 0.196,0.034 5.561,1.461 8.327,2.472 9.729,2.614 l 0.067,0.012 c 8.019,1.445 15.619,1.495 19.292,0.933 l 0.058,-0.007 0.017,-0.05 c 1.03,-4.593 6.88,-6.935 7.125,-7.03 l 0.62,-0.243 c 0.485,-0.19 0.984,0.245 0.87,0.759 -0.08,0.361 -0.144,0.653 -0.144,0.653 -0.011,0.01 -0.269,1.186 -0.269,2.776 0,0.847 0.07,1.647 0.223,2.38 0.058,0.275 0.08,0.566 0.08,0.85 0,0.749 -0.183,1.533 -0.544,2.324 l -0.028,0.063 0.056,0.041 c 1.002,0.68 1.685,1.64 2.027,2.845 0.665,2.37 2.959,4.599 2.983,4.618 l 0.417,0.398 c 0.352,0.335 0.231,0.928 -0.223,1.097 -0.3,0.112 -0.544,0.202 -0.544,0.202 -2.117,0.774 -8.172,-0.142 -10.858,-3.451 l -0.034,-0.054 -0.062,0.031 c -6.441,3.5 -12.876,5.687 -19.624,6.682 -0.476,0.07 -0.953,0.135 -1.432,0.193 L 12.162,0.207 8.497,0.282 4.241,0.141 0,0" /></g><g
           transform="translate(122.162,219.8764)"
           id="g94"><path
             id="path96"
             style="fill:#ffffff;fill-opacity:1;fill-rule:nonzero;stroke:#ffffff;stroke-width:2;stroke-linecap:butt;stroke-linejoin:miter;stroke-miterlimit:10;stroke-dasharray:none;stroke-opacity:1"
             d="m 0,0 c -0.233,-0.009 -0.34,-0.171 -0.441,-0.329 -0.064,-0.104 -0.141,-0.218 -0.248,-0.318 0,0 0.218,-0.138 0.311,-0.195 0.012,-0.043 0.029,-0.106 0.029,-0.106 0.856,0.143 0.936,0.292 0.969,0.348 0.039,0.068 0.03,0.145 -0.024,0.207 C 0.398,-0.144 0.228,0.009 0,0" /></g></g></g></g></svg>